<svg xmlns="http://www.w3.org/2000/svg" xml:space="preserve" viewBox="0 0 256 256"><path d="M91.3 0h73.4A91.3 91.3 45 0 1 256 91.3v73.4a91.3 91.3 135 0 1-91.3 91.3H91.3A91.3 91.3 45 0 1 0 164.7V91.3A91.3 91.3 135 0 1 91.3 0Z" style="fill:#000;stroke-width:.264583;fill-opacity:1"/><circle cx="68.3" cy="68.4" r="34.7" style="fill:#fff;stroke-width:.264583;fill-opacity:1"/><circle cx="125.7" cy="125.7" r="34.7" style="fill:#fff;stroke-width:.264583;fill-opacity:1"/><circle cx="107.6" cy="201.5" r="34.7" style="fill:#fff;stroke-width:.264583;fill-opacity:1"/><circle cx="184.5" cy="184.5" r="34.7" style="fill:#fff;stroke-width:.264583;fill-opacity:1"/><circle cx="201.5" cy="107.8" r="34.7" style="fill:#fff;stroke-width:.264583;fill-opacity:1"/><path d="m68.3 68.4 57.4 57.3-18.1 75.8" style="fill:none;stroke-width:14.02291667;stroke:#fff;stroke-opacity:1;stroke-dasharray:none"/><path d="m125.7 125.7 75.8-18-17 76.8" style="fill:none;fill-opacity:1;stroke:#fff;stroke-width:14.0229;stroke-dasharray:none;stroke-opacity:1"/></svg>